<?xml version="1.0" encoding="UTF-8"?>
<svg xmlns="http://www.w3.org/2000/svg" xmlns:xlink="http://www.w3.org/1999/xlink" id="Layer_1" version="1.1" viewBox="0 0 1000 145">
  <defs>
    <style>
      .st0 {
        fill: url(#linear-gradient2);
      }

      .st1 {
        fill: url(#linear-gradient1);
      }

      .st2 {
        fill: none;
      }

      .st3 {
        clip-path: url(#clippath-1);
      }

      .st4 {
        clip-path: url(#clippath-2);
      }

      .st5 {
        fill: url(#linear-gradient);
      }

      .st6 {
        clip-path: url(#clippath);
      }
    </style>
    <clipPath id="clippath">
      <path class="st2" d="M44.3,18l-31.5,49.7c9-14.2,28.6-15.5,44.1-15.7h29.5s28.1,0,28.1,0h28.1s-14.7-23.2-14.7-23.2c-7.9-12.1-19-26.9-37-26.9h-15.8c-13,0-24.2,5.9-30.7,16.1"></path>
    </clipPath>
    <linearGradient id="linear-gradient" x1="198.7" y1="893.8" x2="201.5" y2="893.8" gradientTransform="translate(9151.5 -40502) rotate(-180) scale(45.4 -45.4)" gradientUnits="userSpaceOnUse">
      <stop offset="0" stop-color="#6b01bb"></stop>
      <stop offset="1" stop-color="#c34eff"></stop>
    </linearGradient>
    <clipPath id="clippath-1">
      <path class="st2" d="M90.7,1.9c18,0,29,14.8,37,26.9l14.7,23.2,14,22.1,14,22.1,14.7-23.2c7.6-12.3,16.1-28.4,7.1-42.6l-7.9-12.5c-6.5-10.2-17.7-16.1-30.7-16.1h-63Z"></path>
    </clipPath>
    <linearGradient id="linear-gradient1" x1="200.1" y1="899.3" x2="202.9" y2="899.3" gradientTransform="translate(30321.4 6807.7) rotate(-90) scale(33.6 -33.6)" gradientUnits="userSpaceOnUse">
      <stop offset="0" stop-color="#2566ec"></stop>
      <stop offset=".9" stop-color="#00b2f7"></stop>
      <stop offset="1" stop-color="#00b2f7"></stop>
    </linearGradient>
    <clipPath id="clippath-2">
      <path class="st2" d="M4.9,80.1c-6.5,10.2-6.5,22,0,32.2l7.9,12.5c9,14.2,28.6,15.5,44.1,15.7h29.5l-14-22.1-14-22.1-14.7-23.2c-7.6-12.3-16.1-28.4-7.1-42.6L4.9,80.1Z"></path>
    </clipPath>
    <linearGradient id="linear-gradient2" x1="188.8" y1="893.1" x2="191.6" y2="893.1" gradientTransform="translate(-33344.6 -7009.4) rotate(90) scale(37.4 -37.4)" gradientUnits="userSpaceOnUse">
      <stop offset="0" stop-color="#be0053"></stop>
      <stop offset="1" stop-color="#ff005f"></stop>
    </linearGradient>
  </defs>
  <g>
    <g class="st6">
      <rect class="st5" x="12.8" y="1.9" width="129.7" height="65.8"></rect>
    </g>
    <g class="st3">
      <rect class="st1" x="74.5" y="-19.5" width="143.1" height="137.2" transform="translate(-4.8 80.3) rotate(-30.3)"></rect>
    </g>
    <g class="st4">
      <rect class="st0" x="-22.4" y="16.2" width="129.6" height="138.5" transform="translate(-35.4 30.3) rotate(-28.3)"></rect>
    </g>
  </g>
  <path d="M289.8,140.6l-8.3-14.9h-59.7l-8.3,14.9h-28.9l52.3-88.1h29.5l52.4,88.1h-28.9ZM269.8,105.3l-14.8-31-.4-1h-6.1l-.4,1-14.8,31h36.5ZM406.2,52.5c11.8,0,21.6,4,29.7,12.2,8.2,8.2,12.3,18.1,12.3,29.8v3.8c.1,25.3-20.5,42.3-39.5,42.3h-81.3V52.5h78.7ZM420.9,94.7c0-13.6-6.8-20.4-20.4-20.4h-46.4v44.3h46.3c13.7,0,20.5-6.9,20.5-20.6v-3.3ZM564.4,52.5l-29,49.1-.5,1.3h-3.3l-.5-1.3-28.9-49.1h-41.1l-1.3,88.1h26.3l1.3-62.9-.8-3,2-1.3,1.8,2.9,31.1,53.6h23.3l31.1-53.6,1.5-2.9,2,1.3-.5,3,1.3,62.9h26.3l-1.3-88.1h-41ZM745.4,96.5c0,34.9-24.8,46.6-63.5,46.6s-63.5-11.6-63.5-46.6,25.3-46.6,63.5-46.6,63.5,11.7,63.5,46.6M645.6,96.5c0,21,10.8,24.4,36.2,24.4s36.2-3.6,36.2-24.4-10.8-24.4-36.2-24.4-36.2,3.7-36.2,24.4M856.2,57.5c-11.4-5.4-28.3-7.6-47.1-7.6-37.7,0-52.4,11.3-52.4,28.2s7,19.3,17.3,23.2c3.9,1.5,19.7,4,41.1,6.9,13.5,1.4,18.7,3.9,18.7,6.7,0,5-9,7-22.5,7-21.5,0-37-4.4-47.6-11.1l-12.4,17.6c15.8,10.6,35.9,14.6,57,14.6,38.5,0,53.4-12.2,53.4-30.5s-12.9-22-32.4-25c-13.7-2.1-25.6-2.8-36.7-4.8-5.7-1-8.1-3.4-8.1-5.9,0-4,7.7-5.7,19.4-5.7,18.7,0,33.7,2.3,45.2,5.7l7.1-19.4ZM971.1,140.6l-8.3-14.9h-59.7l-8.3,14.9h-28.9l52.3-88.1h29.5l52.4,88.1h-28.9ZM951.1,105.3l-14.8-31-.4-1h-6.1l-.4,1-14.8,31h36.5Z"></path>
</svg>
